<?xml version="1.0" encoding="UTF-8" standalone="no"?>
<svg width="23px" height="24px" viewBox="0 0 23 24" version="1.1" xmlns="http://www.w3.org/2000/svg" xmlns:xlink="http://www.w3.org/1999/xlink">
    <!-- Generator: Sketch 39.1 (31720) - http://www.bohemiancoding.com/sketch -->
    <title>liitteet-icon</title>
    <desc>Created with Sketch.</desc>
    <defs>
        <polygon id="path-1" points="6.6618 18.4761 0 18.4761 0 0.0003 6.6618 0.0003"></polygon>
    </defs>
    <g id="Page-1" stroke="none" stroke-width="1" fill="none" fill-rule="evenodd">
        <g id="liitteet-icon">
            <g id="Page-1-Copy" transform="translate(4.000000, 2.000000)" fill="#359BB7">
                <polygon id="Fill-1" points="12 0 12 1 15 1 15 19 1 19 1 1 3.03630757 1 3.03630769 0 0 0 0 20 16 20 16 0"></polygon>
            </g>
            <g id="Page-1-Copy-2" transform="translate(8.000000, 1.000000)">
                <mask id="mask-2" fill="white">
                    <use xlink:href="#path-1"></use>
                </mask>
                <g id="Clip-2"></g>
                <path d="M4.8208,5.0313 C3.8058,5.0313 2.9798,5.8573 2.9798,6.8723 L2.9798,12.9163 C2.9798,13.1923 3.2038,13.4163 3.4798,13.4163 C3.7568,13.4163 3.9798,13.1923 3.9798,12.9163 L3.9798,6.8723 C3.9798,6.4083 4.3568,6.0313 4.8208,6.0313 C5.2848,6.0313 5.6618,6.4083 5.6618,6.8723 L5.6618,8.5003 L5.6618,13.8093 L5.6618,15.1453 C5.6618,16.4303 4.6158,17.4763 3.3308,17.4763 C2.0458,17.4763 0.9998,16.4303 0.9998,15.1453 L0.9998,12.9763 L0.9998,3.5003 L0.9998,3.3303 C0.9998,2.0453 2.0458,1.0003 3.3308,1.0003 C4.6158,1.0003 5.6618,2.0453 5.6618,3.3303 C5.6618,3.6073 5.8848,3.8303 6.1618,3.8303 C6.4378,3.8303 6.6618,3.6073 6.6618,3.3303 C6.6618,1.4943 5.1678,0.0003 3.3308,0.0003 C1.4938,0.0003 -0.000199999999,1.4943 -0.000199999999,3.3303 L-0.000199999999,3.5003 L-0.000199999999,12.9763 L-0.000199999999,15.1453 C-0.000199999999,16.9823 1.4938,18.4763 3.3308,18.4763 C5.1678,18.4763 6.6618,16.9823 6.6618,15.1453 L6.6618,13.8093 L6.6618,8.5003 L6.6618,6.8723 C6.6618,5.8573 5.8358,5.0313 4.8208,5.0313" id="Fill-1" fill="#359BB7" mask="url(#mask-2)"></path>
            </g>
        </g>
    </g>
</svg>