<svg width="17" height="16" viewBox="0 0 17 16" fill="none" xmlns="http://www.w3.org/2000/svg">
<path d="M9.55762 1C9.55762 0.446875 9.11074 0 8.55762 0C8.00449 0 7.55762 0.446875 7.55762 1V8.58438L5.26387 6.29063C4.87324 5.9 4.23887 5.9 3.84824 6.29063C3.45762 6.68125 3.45762 7.31563 3.84824 7.70625L7.84824 11.7063C8.23887 12.0969 8.87324 12.0969 9.26387 11.7063L13.2639 7.70625C13.6545 7.31563 13.6545 6.68125 13.2639 6.29063C12.8732 5.9 12.2389 5.9 11.8482 6.29063L9.55762 8.58438V1ZM2.55762 11C1.45449 11 0.557617 11.8969 0.557617 13V14C0.557617 15.1031 1.45449 16 2.55762 16H14.5576C15.6607 16 16.5576 15.1031 16.5576 14V13C16.5576 11.8969 15.6607 11 14.5576 11H11.3857L9.97012 12.4156C9.18887 13.1969 7.92324 13.1969 7.14199 12.4156L5.72949 11H2.55762ZM14.0576 12.75C14.2565 12.75 14.4473 12.829 14.5879 12.9697C14.7286 13.1103 14.8076 13.3011 14.8076 13.5C14.8076 13.6989 14.7286 13.8897 14.5879 14.0303C14.4473 14.171 14.2565 14.25 14.0576 14.25C13.8587 14.25 13.6679 14.171 13.5273 14.0303C13.3866 13.8897 13.3076 13.6989 13.3076 13.5C13.3076 13.3011 13.3866 13.1103 13.5273 12.9697C13.6679 12.829 13.8587 12.75 14.0576 12.75Z" fill="#204D99"/>
</svg>
