<svg id="Layer_1" data-name="Layer 1" xmlns="http://www.w3.org/2000/svg" width="18" height="18" viewBox="0 0 18 18"><defs><style>.cls-1{fill:#18bc9c;}.cls-2{fill:#fff;}</style></defs><circle class="cls-1" cx="9" cy="9" r="9"/><path class="cls-2" d="M10.08,10.88a1.35,1.35,0,0,1-1.1.65c-.67,0-1.14-.49-1.35-1.36H9.68V9.28H7.51c0-.12,0-.23,0-.35a2,2,0,0,1,0-.25h2.65V7.79H7.61C7.8,6.88,8.26,6.36,9,6.36a1.42,1.42,0,0,1,1,.52l1-1A2.61,2.61,0,0,0,9,5,3.17,3.17,0,0,0,5.85,7.8l-.77,0v.83h.67a3,3,0,0,0,0,.31c0,.11,0,.2,0,.31l-.67,0v.82h.77a3,3,0,0,0,3,2.73,2.77,2.77,0,0,0,2.19-1.11Z"/></svg>