<?xml version="1.0" encoding="utf-8"?>
<!-- Generator: Adobe Illustrator 25.2.3, SVG Export Plug-In . SVG Version: 6.00 Build 0)  -->
<svg version="1.1" id="Layer_1" xmlns="http://www.w3.org/2000/svg" xmlns:xlink="http://www.w3.org/1999/xlink" x="0px" y="0px"
	 viewBox="0 0 52 19" style="enable-background:new 0 0 52 19;" xml:space="preserve">
<style type="text/css">
	.st0{fill:#263D43;}
	.st1{fill:#FFFFFF;}
</style>
<path class="st0" d="M9.5,0h33C47.7,0,52,4.3,52,9.5l0,0c0,5.2-4.3,9.5-9.5,9.5h-33C4.3,19,0,14.7,0,9.5l0,0C0,4.3,4.3,0,9.5,0z"/>
<path class="st1" d="M7.5,15V7.5h1.3l0.1,0.5h0c0.2-0.2,0.5-0.3,0.7-0.5c0.3-0.1,0.5-0.2,0.8-0.2c0.3,0,0.6,0.1,0.9,0.2
	s0.5,0.3,0.7,0.6c0.2,0.2,0.3,0.5,0.4,0.9c0.1,0.3,0.2,0.7,0.2,1.1c0,0.5-0.1,0.9-0.2,1.3c-0.1,0.4-0.3,0.7-0.5,0.9
	c-0.2,0.2-0.5,0.4-0.7,0.6c-0.3,0.1-0.6,0.2-0.8,0.2c-0.2,0-0.5,0-0.7-0.1c-0.2-0.1-0.4-0.2-0.6-0.4l0.1,0.9V15H7.5z M9.9,11.8
	c0.3,0,0.5-0.1,0.7-0.4c0.2-0.3,0.3-0.7,0.3-1.2c0-1-0.3-1.5-0.9-1.5c-0.3,0-0.6,0.2-0.9,0.5v2.2c0.1,0.1,0.3,0.2,0.4,0.3
	C9.7,11.8,9.8,11.8,9.9,11.8z M13.8,13V7.5h1.3l0.1,1h0c0.2-0.4,0.4-0.6,0.7-0.8s0.6-0.3,0.8-0.3c0.2,0,0.3,0,0.4,0
	c0.1,0,0.2,0,0.3,0.1l-0.3,1.4c-0.1,0-0.2-0.1-0.3-0.1c-0.1,0-0.2,0-0.3,0c-0.2,0-0.4,0.1-0.6,0.2c-0.2,0.1-0.4,0.4-0.5,0.8V13H13.8
	z M20.5,13.1c-0.4,0-0.8-0.1-1.1-0.2c-0.3-0.1-0.6-0.3-0.9-0.6c-0.2-0.2-0.4-0.6-0.6-0.9c-0.1-0.4-0.2-0.8-0.2-1.2
	c0-0.4,0.1-0.8,0.2-1.2c0.1-0.4,0.3-0.7,0.6-0.9c0.2-0.2,0.5-0.4,0.8-0.6c0.3-0.1,0.6-0.2,1-0.2c0.4,0,0.7,0.1,1,0.2
	c0.3,0.1,0.5,0.3,0.7,0.5c0.2,0.2,0.3,0.5,0.4,0.8c0.1,0.3,0.1,0.7,0.1,1c0,0.1,0,0.3,0,0.4s0,0.2,0,0.3h-3.3
	c0.1,0.4,0.2,0.7,0.5,0.9c0.3,0.2,0.6,0.3,0.9,0.3c0.4,0,0.8-0.1,1.2-0.4l0.5,1c-0.3,0.2-0.6,0.3-0.9,0.5
	C21.1,13.1,20.8,13.1,20.5,13.1z M19.3,9.7h2c0-0.3-0.1-0.6-0.2-0.7c-0.1-0.2-0.4-0.3-0.7-0.3c-0.3,0-0.5,0.1-0.7,0.3
	C19.5,9.1,19.3,9.3,19.3,9.7z M23.4,13v-0.9c0.4-0.4,0.9-0.8,1.2-1.2c0.4-0.4,0.7-0.7,1-1c0.3-0.3,0.5-0.6,0.6-0.9
	c0.2-0.3,0.2-0.5,0.2-0.8c0-0.3-0.1-0.6-0.3-0.8c-0.2-0.2-0.4-0.3-0.7-0.3c-0.3,0-0.5,0.1-0.7,0.2c-0.2,0.1-0.4,0.3-0.6,0.5L23.3,7
	c0.3-0.4,0.7-0.6,1.1-0.8c0.4-0.2,0.8-0.3,1.3-0.3c0.3,0,0.7,0.1,0.9,0.2c0.3,0.1,0.5,0.3,0.7,0.5c0.2,0.2,0.4,0.4,0.5,0.7
	C27.9,7.5,28,7.8,28,8.1c0,0.3-0.1,0.6-0.2,0.9c-0.1,0.3-0.3,0.6-0.5,0.9c-0.2,0.3-0.4,0.6-0.7,0.9c-0.3,0.3-0.5,0.6-0.8,0.9
	c0.2,0,0.4,0,0.6-0.1c0.2,0,0.4,0,0.6,0h1.4V13H23.4z M31.7,13.1c-0.4,0-0.7-0.1-1-0.2c-0.3-0.2-0.6-0.4-0.8-0.7
	c-0.2-0.3-0.4-0.7-0.5-1.1c-0.1-0.5-0.2-1-0.2-1.6c0-0.6,0.1-1.1,0.2-1.6c0.1-0.4,0.3-0.8,0.5-1.1c0.2-0.3,0.5-0.5,0.8-0.7
	c0.3-0.2,0.6-0.2,1-0.2c0.4,0,0.7,0.1,1,0.2c0.3,0.1,0.6,0.4,0.8,0.7c0.2,0.3,0.4,0.7,0.5,1.1c0.1,0.4,0.2,1,0.2,1.6
	c0,0.6-0.1,1.1-0.2,1.6c-0.1,0.5-0.3,0.8-0.5,1.1c-0.2,0.3-0.5,0.5-0.8,0.7C32.4,13.1,32.1,13.1,31.7,13.1z M31.7,11.9
	c0.1,0,0.3,0,0.4-0.1c0.1-0.1,0.2-0.2,0.3-0.4c0.1-0.2,0.2-0.4,0.2-0.7c0.1-0.3,0.1-0.7,0.1-1.2c0-0.5,0-0.9-0.1-1.2
	c0-0.3-0.1-0.5-0.2-0.7c-0.1-0.2-0.2-0.3-0.3-0.4c-0.1-0.1-0.2-0.1-0.4-0.1c-0.1,0-0.3,0-0.4,0.1S31.1,7.4,31,7.6
	C31,7.8,30.9,8,30.8,8.3c-0.1,0.3-0.1,0.7-0.1,1.2c0,0.5,0,0.9,0.1,1.2c0.1,0.3,0.1,0.6,0.2,0.7c0.1,0.2,0.2,0.3,0.3,0.4
	C31.5,11.8,31.6,11.9,31.7,11.9z M35,13v-0.9c0.4-0.4,0.9-0.8,1.2-1.2c0.4-0.4,0.7-0.7,1-1c0.3-0.3,0.5-0.6,0.6-0.9
	c0.2-0.3,0.2-0.5,0.2-0.8c0-0.3-0.1-0.6-0.3-0.8c-0.2-0.2-0.4-0.3-0.7-0.3c-0.3,0-0.5,0.1-0.7,0.2c-0.2,0.1-0.4,0.3-0.6,0.5L35,7
	c0.3-0.4,0.7-0.6,1.1-0.8c0.4-0.2,0.8-0.3,1.3-0.3c0.3,0,0.7,0.1,0.9,0.2c0.3,0.1,0.5,0.3,0.7,0.5c0.2,0.2,0.4,0.4,0.5,0.7
	s0.2,0.6,0.2,0.9c0,0.3-0.1,0.6-0.2,0.9c-0.1,0.3-0.3,0.6-0.5,0.9c-0.2,0.3-0.4,0.6-0.7,0.9c-0.3,0.3-0.5,0.6-0.8,0.9
	c0.2,0,0.4,0,0.6-0.1c0.2,0,0.4,0,0.6,0H40V13H35z M40.9,13v-0.9c0.4-0.4,0.9-0.8,1.2-1.2c0.4-0.4,0.7-0.7,1-1
	c0.3-0.3,0.5-0.6,0.6-0.9c0.2-0.3,0.2-0.5,0.2-0.8c0-0.3-0.1-0.6-0.3-0.8c-0.2-0.2-0.4-0.3-0.7-0.3c-0.3,0-0.5,0.1-0.7,0.2
	c-0.2,0.1-0.4,0.3-0.6,0.5L40.8,7c0.3-0.4,0.7-0.6,1.1-0.8c0.4-0.2,0.8-0.3,1.3-0.3c0.3,0,0.7,0.1,0.9,0.2c0.3,0.1,0.5,0.3,0.7,0.5
	c0.2,0.2,0.4,0.4,0.5,0.7s0.2,0.6,0.2,0.9c0,0.3-0.1,0.6-0.2,0.9c-0.1,0.3-0.3,0.6-0.5,0.9c-0.2,0.3-0.4,0.6-0.7,0.9
	c-0.3,0.3-0.5,0.6-0.8,0.9c0.2,0,0.4,0,0.6-0.1c0.2,0,0.4,0,0.6,0h1.4V13H40.9z"/>
</svg>
